<svg id="svg" version="1.1" xmlns="http://www.w3.org/2000/svg" xmlns:xlink="http://www.w3.org/1999/xlink" width="400" height="400" viewBox="0, 0, 400,400"><g id="svgg"><path id="path0" d="M196.094 86.379 C 145.389 88.750,107.638 137.821,118.610 187.094 C 128.505 231.526,175.702 261.513,218.480 250.548 L 220.749 249.967 222.432 251.839 C 223.357 252.868,225.051 254.854,226.196 256.250 C 227.340 257.646,229.041 259.705,229.975 260.824 L 231.673 262.858 240.693 255.745 C 245.654 251.833,250.424 248.005,251.292 247.238 L 252.872 245.844 249.873 242.318 C 246.217 238.019,246.134 238.666,250.781 235.197 C 270.194 220.706,282.468 197.218,283.463 172.656 C 285.411 124.579,244.439 84.119,196.094 86.379 M209.677 105.689 C 236.642 109.693,259.575 131.817,264.091 158.184 C 273.029 210.367,219.332 251.068,172.048 227.951 C 142.128 213.323,128.000 179.965,138.537 148.828 C 148.447 119.544,178.845 101.111,209.677 105.689 M192.372 116.423 C 152.835 121.593,132.699 166.784,155.225 199.794 C 177.015 231.726,224.058 231.468,245.473 199.300 C 271.216 160.631,238.985 110.327,192.372 116.423 M205.384 127.376 C 239.205 131.147,255.502 171.715,233.367 197.032 C 207.189 226.971,158.582 210.804,157.148 171.680 C 156.147 144.391,177.998 124.322,205.384 127.376 M188.612 138.278 C 175.539 142.631,167.600 151.272,164.625 164.384 C 163.537 169.179,163.427 171.831,164.250 173.422 C 167.039 178.815,174.609 176.497,174.609 170.251 C 174.609 160.469,182.919 150.500,192.979 148.214 C 198.937 146.860,200.846 142.243,196.950 138.609 C 194.936 136.730,193.440 136.670,188.612 138.278 M260.898 252.803 C 259.953 253.485,257.070 255.734,254.492 257.800 C 251.914 259.867,245.883 264.612,241.089 268.345 C 231.392 275.898,230.859 276.427,230.859 278.514 C 230.859 280.415,230.722 280.225,244.429 297.340 C 250.849 305.356,257.804 314.052,259.885 316.664 C 266.207 324.603,271.273 327.344,279.626 327.344 C 296.994 327.344,307.008 308.712,298.043 293.080 C 297.401 291.960,292.349 285.359,286.817 278.410 C 281.284 271.462,274.500 262.918,271.740 259.423 C 265.175 251.108,264.130 250.471,260.898 252.803 M282.395 300.181 C 286.460 302.283,287.365 307.531,284.207 310.688 C 279.839 315.057,272.619 311.800,273.126 305.690 C 273.515 300.996,278.380 298.105,282.395 300.181 " stroke="none" fill="#242c31" fill-rule="evenodd"></path><path id="path1" d="M0.000 200.000 L 0.000 400.000 200.000 400.000 L 400.000 400.000 400.000 200.000 L 400.000 0.000 200.000 0.000 L 0.000 0.000 0.000 200.000 M214.844 87.301 C 286.204 101.454,308.355 192.118,251.015 235.350 L 246.940 238.423 249.349 241.326 C 253.630 246.487,253.430 245.741,251.073 247.733 C 246.801 251.342,232.003 262.891,231.650 262.891 C 231.447 262.891,229.522 260.737,227.372 258.105 C 225.222 255.474,222.881 252.655,222.170 251.843 L 220.877 250.365 218.058 250.958 C 163.531 262.428,112.218 217.900,116.744 163.039 C 120.022 123.311,150.037 92.483,191.406 86.356 C 196.343 85.625,208.957 86.134,214.844 87.301 M192.578 105.506 C 148.821 110.390,122.514 157.997,141.764 197.461 C 166.789 248.764,240.162 245.530,260.752 192.217 C 277.868 147.897,240.348 100.175,192.578 105.506 M207.897 116.239 C 237.741 120.393,259.113 148.999,254.133 178.125 C 246.258 224.175,187.542 240.079,158.225 204.102 C 126.653 165.357,158.323 109.338,207.897 116.239 M192.578 127.776 C 161.567 132.518,146.621 170.042,165.677 195.313 C 187.547 224.315,232.954 214.811,242.055 179.326 C 249.525 150.198,223.470 123.051,192.578 127.776 M196.475 137.819 C 201.524 141.556,199.695 146.716,192.688 148.506 C 182.929 150.999,175.766 159.458,175.016 169.376 C 174.553 175.497,170.456 178.433,166.091 175.772 C 160.365 172.281,164.723 155.900,173.789 146.833 C 180.670 139.952,192.830 135.120,196.475 137.819 M265.233 251.952 C 266.107 252.399,267.655 253.861,268.849 255.370 C 269.997 256.821,272.509 260.017,274.433 262.472 C 276.356 264.927,282.265 272.367,287.565 279.005 C 292.968 285.774,297.799 292.220,298.564 293.682 C 306.651 309.138,297.538 326.602,280.859 327.609 C 271.906 328.149,266.121 324.982,258.667 315.459 C 255.608 311.552,252.522 307.695,235.862 286.951 C 228.392 277.651,228.306 278.087,239.282 269.515 C 243.534 266.194,250.103 261.032,253.878 258.044 C 263.393 250.513,262.914 250.770,265.233 251.952 M277.118 300.332 C 272.877 302.307,271.930 307.451,275.205 310.726 C 279.037 314.558,285.935 311.589,285.937 306.108 C 285.939 301.689,281.062 298.495,277.118 300.332 " stroke="none" fill="#fbfbfb" fill-rule="evenodd"></path><path id="path2" d="M194.238 86.207 C 194.614 86.305,195.229 86.305,195.605 86.207 C 195.981 86.109,195.674 86.028,194.922 86.028 C 194.170 86.028,193.862 86.109,194.238 86.207 M198.549 115.914 C 199.793 115.992,201.726 115.991,202.846 115.912 C 203.966 115.834,202.949 115.770,200.586 115.771 C 198.223 115.772,197.306 115.836,198.549 115.914 M238.281 131.445 C 239.448 132.627,240.491 133.594,240.598 133.594 C 240.706 133.594,239.839 132.627,238.672 131.445 C 237.505 130.264,236.462 129.297,236.355 129.297 C 236.247 129.297,237.114 130.264,238.281 131.445 M161.328 131.445 C 160.379 132.412,159.691 133.203,159.798 133.203 C 159.906 133.203,160.770 132.412,161.719 131.445 C 162.668 130.479,163.356 129.688,163.249 129.688 C 163.141 129.688,162.277 130.479,161.328 131.445 M168.530 140.332 L 167.383 141.602 168.652 140.454 C 169.351 139.823,169.922 139.252,169.922 139.185 C 169.922 138.883,169.600 139.149,168.530 140.332 M173.618 146.973 L 171.680 149.023 173.730 147.085 C 174.858 146.019,175.781 145.096,175.781 145.034 C 175.781 144.743,175.419 145.067,173.618 146.973 M181.229 154.980 L 179.883 156.445 181.348 155.099 C 182.153 154.359,182.813 153.700,182.813 153.634 C 182.813 153.336,182.482 153.617,181.229 154.980 M116.555 169.727 C 116.556 172.305,116.619 173.309,116.696 171.957 C 116.772 170.606,116.772 168.497,116.694 167.270 C 116.617 166.043,116.555 167.148,116.555 169.727 M145.444 169.922 C 145.444 171.533,145.513 172.192,145.597 171.387 C 145.681 170.581,145.681 169.263,145.597 168.457 C 145.513 167.651,145.444 168.311,145.444 169.922 M283.719 169.531 C 283.719 170.928,283.790 171.499,283.876 170.801 C 283.963 170.103,283.963 168.960,283.876 168.262 C 283.790 167.563,283.719 168.135,283.719 169.531 M264.975 170.703 C 264.975 172.314,265.044 172.974,265.128 172.168 C 265.213 171.362,265.213 170.044,265.128 169.238 C 265.044 168.433,264.975 169.092,264.975 170.703 M174.726 170.313 C 174.726 171.494,174.800 171.978,174.889 171.387 C 174.979 170.796,174.979 169.829,174.889 169.238 C 174.800 168.647,174.726 169.131,174.726 170.313 M142.383 229.297 C 143.441 230.371,144.394 231.250,144.502 231.250 C 144.609 231.250,143.832 230.371,142.773 229.297 C 141.715 228.223,140.762 227.344,140.654 227.344 C 140.547 227.344,141.325 228.223,142.383 229.297 " stroke="none" fill="#a0a5a7" fill-rule="evenodd"></path><path id="path3" d="M198.730 127.229 C 199.214 127.322,200.005 127.322,200.488 127.229 C 200.972 127.136,200.576 127.060,199.609 127.060 C 198.643 127.060,198.247 127.136,198.730 127.229 " stroke="none" fill="#858c8c" fill-rule="evenodd"></path><path id="path4" d="M197.956 86.221 C 198.658 86.308,199.713 86.306,200.300 86.217 C 200.887 86.127,200.312 86.056,199.023 86.059 C 197.734 86.061,197.254 86.134,197.956 86.221 M202.251 86.214 C 202.737 86.307,203.440 86.304,203.813 86.206 C 204.187 86.108,203.789 86.032,202.930 86.036 C 202.070 86.040,201.765 86.120,202.251 86.214 M258.594 110.742 C 259.978 112.139,261.198 113.281,261.306 113.281 C 261.413 113.281,260.368 112.139,258.984 110.742 C 257.600 109.346,256.380 108.203,256.273 108.203 C 256.165 108.203,257.210 109.346,258.594 110.742 M245.703 123.950 C 245.703 124.018,246.274 124.589,246.973 125.220 L 248.242 126.367 247.095 125.098 C 246.025 123.914,245.703 123.649,245.703 123.950 M243.476 169.922 C 243.476 171.104,243.550 171.587,243.639 170.996 C 243.729 170.405,243.729 169.438,243.639 168.848 C 243.550 168.257,243.476 168.740,243.476 169.922 M162.109 208.398 C 162.838 209.150,163.522 209.766,163.630 209.766 C 163.737 209.766,163.229 209.150,162.500 208.398 C 161.771 207.646,161.087 207.031,160.980 207.031 C 160.872 207.031,161.381 207.646,162.109 208.398 M259.375 227.539 C 258.426 228.506,257.738 229.297,257.845 229.297 C 257.953 229.297,258.817 228.506,259.766 227.539 C 260.714 226.572,261.403 225.781,261.295 225.781 C 261.188 225.781,260.324 226.572,259.375 227.539 M278.619 327.624 C 279.212 327.714,280.091 327.711,280.572 327.619 C 281.052 327.526,280.566 327.453,279.492 327.455 C 278.418 327.458,278.025 327.534,278.619 327.624 " stroke="none" fill="#7c8486" fill-rule="evenodd"></path></g></svg>